<mxfile host="65bd71144e">
    <diagram id="6kDpcCLhYzHzG3fjyuZW" name="Page-1">
        <mxGraphModel dx="804" dy="276" grid="1" gridSize="10" guides="1" tooltips="1" connect="1" arrows="1" fold="1" page="1" pageScale="1" pageWidth="827" pageHeight="1169" math="0" shadow="0">
            <root>
                <mxCell id="0"/>
                <mxCell id="1" parent="0"/>
                <mxCell id="8" value="" style="edgeStyle=none;html=1;" edge="1" parent="1" source="5" target="7">
                    <mxGeometry relative="1" as="geometry"/>
                </mxCell>
                <mxCell id="5" value="" style="rounded=1;whiteSpace=wrap;html=1;fillColor=none;gradientColor=#ffffff;" vertex="1" parent="1">
                    <mxGeometry x="110" y="30" width="120" height="60" as="geometry"/>
                </mxCell>
                <mxCell id="6" value="APP" style="text;html=1;strokeColor=none;fillColor=none;align=center;verticalAlign=middle;whiteSpace=wrap;rounded=0;" vertex="1" parent="1">
                    <mxGeometry x="140" y="45" width="60" height="30" as="geometry"/>
                </mxCell>
                <mxCell id="19" value="" style="edgeStyle=none;html=1;" edge="1" parent="1" source="7" target="18">
                    <mxGeometry relative="1" as="geometry"/>
                </mxCell>
                <mxCell id="22" value="" style="edgeStyle=none;html=1;" edge="1" parent="1" source="7" target="18">
                    <mxGeometry relative="1" as="geometry"/>
                </mxCell>
                <mxCell id="23" value="" style="edgeStyle=none;html=1;" edge="1" parent="1" source="7" target="18">
                    <mxGeometry relative="1" as="geometry"/>
                </mxCell>
                <mxCell id="24" value="" style="edgeStyle=none;html=1;" edge="1" parent="1" source="7" target="18">
                    <mxGeometry relative="1" as="geometry"/>
                </mxCell>
                <mxCell id="44" value="" style="edgeStyle=none;html=1;" edge="1" parent="1" source="7" target="43">
                    <mxGeometry relative="1" as="geometry"/>
                </mxCell>
                <mxCell id="7" value="" style="whiteSpace=wrap;html=1;fillColor=none;rounded=1;gradientColor=#ffffff;" vertex="1" parent="1">
                    <mxGeometry x="110" y="130" width="120" height="60" as="geometry"/>
                </mxCell>
                <mxCell id="9" value="LANDING PAGE" style="text;html=1;strokeColor=none;fillColor=none;align=center;verticalAlign=middle;whiteSpace=wrap;rounded=0;" vertex="1" parent="1">
                    <mxGeometry x="140" y="145" width="60" height="30" as="geometry"/>
                </mxCell>
                <mxCell id="36" value="" style="edgeStyle=none;html=1;" edge="1" parent="1" source="18" target="35">
                    <mxGeometry relative="1" as="geometry"/>
                </mxCell>
                <mxCell id="18" value="NAVBAR" style="whiteSpace=wrap;html=1;fillColor=none;rounded=1;gradientColor=#ffffff;" vertex="1" parent="1">
                    <mxGeometry x="330" y="240" width="120" height="60" as="geometry"/>
                </mxCell>
                <mxCell id="28" value="" style="edgeStyle=none;html=1;" edge="1" parent="1" source="25" target="27">
                    <mxGeometry relative="1" as="geometry"/>
                </mxCell>
                <mxCell id="25" value="BUTTON" style="whiteSpace=wrap;html=1;fillColor=none;rounded=1;gradientColor=#ffffff;" vertex="1" parent="1">
                    <mxGeometry x="40" y="420" width="100" height="50" as="geometry"/>
                </mxCell>
                <mxCell id="30" value="" style="edgeStyle=none;html=1;" edge="1" parent="1" source="27" target="29">
                    <mxGeometry relative="1" as="geometry"/>
                </mxCell>
                <mxCell id="27" value="MAIN PAGE" style="whiteSpace=wrap;html=1;fillColor=none;rounded=1;gradientColor=#ffffff;" vertex="1" parent="1">
                    <mxGeometry x="35" y="490" width="110" height="60" as="geometry"/>
                </mxCell>
                <mxCell id="29" value="" style="whiteSpace=wrap;html=1;fillColor=none;rounded=1;gradientColor=#ffffff;" vertex="1" parent="1">
                    <mxGeometry x="30" y="585" width="120" height="60" as="geometry"/>
                </mxCell>
                <mxCell id="35" value="LINKS" style="whiteSpace=wrap;html=1;fillColor=none;rounded=1;gradientColor=#ffffff;" vertex="1" parent="1">
                    <mxGeometry x="330" y="340" width="120" height="60" as="geometry"/>
                </mxCell>
                <mxCell id="46" value="" style="edgeStyle=none;html=1;" edge="1" parent="1" source="43" target="45">
                    <mxGeometry relative="1" as="geometry"/>
                </mxCell>
                <mxCell id="43" value="LOGIN POP UP&lt;br&gt;if yes,&lt;br&gt;User Access" style="rhombus;whiteSpace=wrap;html=1;fillColor=none;rounded=1;gradientColor=#ffffff;" vertex="1" parent="1">
                    <mxGeometry x="105" y="230" width="130" height="110" as="geometry"/>
                </mxCell>
                <mxCell id="47" value="" style="edgeStyle=none;html=1;entryX=0.392;entryY=-0.078;entryDx=0;entryDy=0;entryPerimeter=0;" edge="1" parent="1" source="45" target="25">
                    <mxGeometry relative="1" as="geometry">
                        <mxPoint x="-20" y="400" as="targetPoint"/>
                    </mxGeometry>
                </mxCell>
                <mxCell id="45" value="" style="whiteSpace=wrap;html=1;fillColor=none;rounded=1;gradientColor=#ffffff;" vertex="1" parent="1">
                    <mxGeometry x="25" y="330" width="100" height="60" as="geometry"/>
                </mxCell>
            </root>
        </mxGraphModel>
    </diagram>
</mxfile>